HIERARCHY
ROOT Hips
{
	OFFSET 0.00 0.00 0.00
	CHANNELS 6 Xposition Yposition Zposition Xrotation Yrotation Zrotation
	JOINT RightUpLeg
	{
		OFFSET -4.47808 0.00000 0.00000
		CHANNELS 3 Xrotation Yrotation Zrotation
		JOINT RightLeg
		{
			OFFSET 0.00000 -16.40577 0.00000
			CHANNELS 3 Xrotation Yrotation Zrotation
			JOINT RightFoot
			{
				OFFSET 0.00000 -14.64414 0.00000
				CHANNELS 3 Xrotation Yrotation Zrotation
				JOINT RightToeBase
				{
					OFFSET 0.00000 -1.50274 5.60831
					CHANNELS 3 Xrotation Yrotation Zrotation
					End Site
					{
						OFFSET 0.00000 0.00000 2.95275
					}
				}
			}
		}
	}
	JOINT LeftUpLeg
	{
		OFFSET 4.47808 0.00000 0.00000
		CHANNELS 3 Xrotation Yrotation Zrotation
		JOINT LeftLeg
		{
			OFFSET 0.00000 -16.40577 0.00000
			CHANNELS 3 Xrotation Yrotation Zrotation
			JOINT LeftFoot
			{
				OFFSET 0.00000 -14.64414 0.00000
				CHANNELS 3 Xrotation Yrotation Zrotation
				JOINT LeftToeBase
				{
					OFFSET 0.00000 -1.50274 5.60831
					CHANNELS 3 Xrotation Yrotation Zrotation
					End Site
					{
						OFFSET 0.00000 0.00000 2.95275
					}
				}
			}
		}
	}
	JOINT Spine
	{
		OFFSET 0.00000 6.06821 0.00000
		CHANNELS 3 Xrotation Yrotation Zrotation
		JOINT RightShoulder
		{
			OFFSET 0.00000 10.01392 0.00000
			CHANNELS 3 Xrotation Yrotation Zrotation
			JOINT RightArm
			{
				OFFSET -7.19022 0.00000 0.00000
				CHANNELS 3 Xrotation Yrotation Zrotation
				JOINT RightForeArm
				{
					OFFSET -10.17747 0.00000 0.00000
					CHANNELS 3 Yrotation Zrotation Xrotation
					JOINT RightHand
					{
						OFFSET -8.39211 0.00000 0.00000
						CHANNELS 3 Xrotation Yrotation Zrotation
						End Site
						{
							OFFSET -3.93700 0.00000 0.00000
						}
						JOINT RightHandThumb1
						{
							OFFSET 0.00000 0.00000 0.00000
							CHANNELS 3 Xrotation Zrotation Yrotation
							End Site
							{
								OFFSET 0.00000 0.00000 3.93700
							}
						}
					}
				}
			}
		}
		JOINT LeftShoulder
		{
			OFFSET 0.00000 10.01392 0.00000
			CHANNELS 3 Xrotation Yrotation Zrotation
			JOINT LeftArm
			{
				OFFSET 7.19022 0.00000 0.00000
				CHANNELS 3 Xrotation Yrotation Zrotation
				JOINT LeftForeArm
				{
					OFFSET 10.17747 0.00000 0.00000
					CHANNELS 3 Yrotation Zrotation Xrotation
					JOINT LeftHand
					{
						OFFSET 8.39211 0.00000 0.00000
						CHANNELS 3 Xrotation Yrotation Zrotation
						End Site
						{
							OFFSET 3.93700 0.00000 0.00000
						}
						JOINT LeftHandThumb1
						{
							OFFSET 0.00000 0.00000 0.00000
							CHANNELS 3 Xrotation Zrotation Yrotation
							End Site
							{
								OFFSET 0.00000 0.00000 3.93700
							}
						}
					}
				}
			}
		}
		JOINT Head
		{
			OFFSET 0.00000 15.77748 0.00000
			CHANNELS 3 Xrotation Yrotation Zrotation
			End Site
			{
				OFFSET 0.00000 4.52755 0.00000
			}
		}
	}
}
MOTION
Frames: 19
Frame Time: 0.008333
 -2.9385 33.1670 -0.4088 7.6556 -1.5501 2.9404 -1.1983 -7.1880 -2.0254 -0.5890 0.0000 -0.0000 -11.1155 -4.2149 1.9927 5.6700 0.0000 0.0000 -1.2611 4.7821 1.0753 1.2047 -0.0000 -0.0000 -9.8164 5.6231 -8.5583 7.4985 0.0000 -0.0000 -8.6334 -1.6904 -2.0559 7.6883 -25.4642 -26.9433 -35.3477 -0.2939 32.8183 9.9971 0.0000 9.0296 -1.2800 6.2191 11.6543 32.8623 0.0000 -24.3270 -5.8015 25.9720 32.0419 -31.8387 2.1062 -30.7160 -2.2269 0.0000 29.8451 1.0991 6.5916 -9.4880 33.1476 -0.0000 26.2537 -2.0866 3.7016 0.0229
 -2.9358 33.1678 -0.4110 7.6553 -1.5566 2.9415 -1.2005 -7.1924 -2.0310 -0.5931 -0.0000 0.0000 -11.1029 -4.2048 2.0160 6.0011 -0.0000 -0.0000 -1.2563 4.7867 1.0715 1.1907 -0.0000 -0.0000 -9.7983 5.6189 -8.5832 7.4973 0.0000 -0.0000 -8.6253 -1.6755 -2.0528 7.6945 -25.4770 -26.9465 -35.3791 -0.3279 32.8250 10.0232 0.0000 9.0234 -1.2878 6.2098 11.7404 32.8623 0.0000 -24.3270 -5.7936 25.9736 32.0393 -31.8517 2.1119 -30.7104 -2.2375 0.0000 29.8756 1.0943 6.5697 -9.4784 33.1476 -0.0000 26.2537 -2.0830 3.6885 0.0189
 -2.9336 33.1684 -0.4131 7.6567 -1.5567 2.9414 -1.2036 -7.1860 -2.0334 -0.5994 -0.0000 -0.0000 -11.0948 -4.2248 2.0287 5.6547 0.0000 -0.0000 -1.2556 4.7838 1.0732 1.1938 -0.0000 -0.0000 -9.8020 5.5777 -8.5509 7.4795 -0.0000 -0.0000 -8.6216 -1.6752 -2.0496 7.6930 -25.4797 -26.9442 -35.3759 -0.3232 32.8160 10.0166 0.0000 8.9978 -1.2939 6.2240 11.7688 32.8623 0.0000 -24.3270 -5.7865 25.9866 32.0431 -31.8441 2.1028 -30.7142 -2.2490 0.0000 29.8665 1.0938 6.5795 -9.4601 33.1476 -0.0000 26.2537 -2.0760 3.6872 0.0170
 -2.9307 33.1686 -0.4151 7.6598 -1.5605 2.9427 -1.2052 -7.1984 -2.0385 -0.6150 0.0000 0.0000 -11.0828 -4.2032 2.0113 5.6880 -0.0000 -0.0000 -1.2544 4.8078 1.0628 1.1652 -0.0000 -0.0000 -9.7809 5.5877 -8.5714 7.4812 -0.0000 -0.0000 -8.6198 -1.6716 -2.0413 7.6959 -25.4884 -26.9504 -35.4012 -0.3380 32.8136 10.0190 0.0000 9.0365 -1.2904 6.2029 11.7758 32.8623 0.0000 -24.3270 -5.7921 25.9844 32.0474 -31.8101 2.1046 -30.7143 -2.2732 0.0000 29.8719 1.0920 6.5914 -9.4285 33.1476 -0.0000 26.2537 -2.0769 3.6964 0.0067
 -2.9276 33.1694 -0.4171 7.6629 -1.5606 2.9441 -1.2110 -7.2193 -2.0466 -0.6257 -0.0000 -0.0000 -11.0478 -4.1734 2.0779 5.5673 -0.0000 0.0000 -1.2555 4.8084 1.0569 1.1534 0.0000 -0.0000 -9.7698 5.5763 -8.5495 7.4858 0.0000 -0.0000 -8.6218 -1.6629 -2.0347 7.6960 -25.4838 -26.9498 -35.3753 -0.3328 32.7905 10.0040 0.0000 9.0096 -1.2891 6.2279 11.7185 32.8623 0.0000 -24.3270 -5.7464 26.0177 32.0328 -31.8646 2.1002 -30.7306 -2.2868 0.0000 29.9052 1.0912 6.6169 -9.3859 33.1476 -0.0000 26.2537 -2.0600 3.7087 0.0005
 -2.9241 33.1699 -0.4186 7.6676 -1.5710 2.9481 -1.2170 -7.2018 -2.0521 -0.6292 -0.0000 -0.0000 -11.0614 -4.1989 2.0000 5.6613 0.0000 -0.0000 -1.2505 4.8198 1.0467 1.1341 0.0000 0.0000 -9.7570 5.5772 -8.5556 7.4660 0.0000 -0.0000 -8.6254 -1.6579 -2.0247 7.6865 -25.4777 -26.9567 -35.3739 -0.3359 32.7765 10.0107 0.0000 9.0396 -1.2880 6.2263 11.7124 32.8623 0.0000 -24.3270 -5.7256 26.0403 32.0223 -31.8558 2.0910 -30.7347 -2.3042 0.0000 29.9273 1.0914 6.6303 -9.3695 33.1476 -0.0000 26.2537 -2.0516 3.7240 -0.0127
 -2.9210 33.1703 -0.4209 7.6756 -1.5724 2.9496 -1.2262 -7.2193 -2.0595 -0.6411 0.0000 0.0000 -11.0487 -4.1771 2.0168 5.6540 -0.0000 0.0000 -1.2560 4.8094 1.0404 1.1235 -0.0000 0.0000 -9.7328 5.5861 -8.6314 7.4184 -0.0000 -0.0000 -8.6292 -1.6489 -2.0197 7.6931 -25.4857 -26.9456 -35.3823 -0.3354 32.7567 10.0125 0.0000 9.0348 -1.2900 6.2252 11.7321 32.8623 0.0000 -24.3270 -5.6975 26.0634 32.0144 -31.8474 2.0638 -30.7481 -2.3148 0.0000 29.9214 1.0852 6.6308 -9.3165 33.1476 -0.0000 26.2537 -2.0483 3.7332 -0.0092
 -2.9180 33.1708 -0.4228 7.6832 -1.5795 2.9535 -1.2381 -7.2223 -2.0680 -0.6431 -0.0000 0.0000 -11.0309 -4.1659 2.0244 5.6080 -0.0000 -0.0000 -1.2565 4.8012 1.0317 1.1073 0.0000 -0.0000 -9.7367 5.5991 -8.5915 7.5067 -0.0000 0.0000 -8.6360 -1.6471 -2.0092 7.6814 -25.4757 -26.9548 -35.3624 -0.3365 32.7436 10.0253 0.0000 9.0537 -1.2846 6.2258 11.6830 32.8623 0.0000 -24.3270 -5.7111 26.0581 32.0121 -31.7811 2.0459 -30.7425 -2.3275 0.0000 29.9464 1.0849 6.6300 -9.3144 33.1476 -0.0000 26.2537 -2.0422 3.7558 -0.0202
 -2.9146 33.1711 -0.4245 7.6851 -1.5834 2.9541 -1.2404 -7.2174 -2.0746 -0.6514 -0.0000 -0.0000 -11.0250 -4.1592 2.0409 5.9587 -0.0000 0.0000 -1.2584 4.8030 1.0263 1.1047 -0.0000 -0.0000 -9.7192 5.5937 -8.6204 7.3965 0.0000 0.0000 -8.6354 -1.6562 -1.9966 7.6772 -25.4672 -26.9630 -35.3643 -0.3379 32.7407 10.0451 0.0000 9.0380 -1.2853 6.2219 11.6965 32.8623 0.0000 -24.3270 -5.6990 26.0679 32.0099 -31.7393 2.0537 -30.7460 -2.3607 0.0000 29.9815 1.0843 6.6210 -9.3219 33.1476 -0.0000 26.2537 -2.0332 3.7878 -0.0215
 -2.9125 33.1714 -0.4256 7.6861 -1.5848 2.9518 -1.2386 -7.2167 -2.0736 -0.6626 -0.0000 -0.0000 -11.0238 -4.1702 2.0311 5.6925 0.0000 -0.0000 -1.2559 4.8064 1.0256 1.0932 -0.0000 -0.0000 -9.7152 5.5815 -8.6099 7.4348 -0.0000 -0.0000 -8.6372 -1.6557 -1.9827 7.6956 -25.4816 -26.9625 -35.3749 -0.3456 32.7395 10.0824 0.0000 9.0184 -1.2810 6.2000 11.6983 32.8623 0.0000 -24.3270 -5.6996 26.0650 32.0017 -31.6536 2.0199 -30.7432 -2.3784 0.0000 29.9520 1.0830 6.6163 -9.3178 33.1476 -0.0000 26.2537 -2.0231 3.8039 -0.0273
 -2.9096 33.1716 -0.4271 7.6891 -1.5867 2.9585 -1.2458 -7.2156 -2.0852 -0.6655 0.0000 -0.0000 -11.0101 -4.1722 2.0477 5.5933 -0.0000 0.0000 -1.2592 4.7850 1.0192 1.0982 -0.0000 0.0000 -9.7323 5.5657 -8.5449 7.4930 0.0000 0.0000 -8.6371 -1.6584 -1.9782 7.6853 -25.4750 -26.9594 -35.3373 -0.3195 32.7239 10.0859 0.0000 8.9904 -1.2792 6.2157 11.6532 32.8623 0.0000 -24.3270 -5.6634 26.0970 31.9692 -31.6480 1.9844 -30.7358 -2.3812 0.0000 29.9681 1.0809 6.6151 -9.3015 33.1476 -0.0000 26.2537 -2.0222 3.8233 -0.0301
 -2.9086 33.1720 -0.4302 7.7061 -1.5955 2.9542 -1.2657 -7.1935 -2.0823 -0.6700 0.0000 0.0000 -11.0035 -4.1843 2.0565 5.6441 0.0000 -0.0000 -1.2784 4.8095 1.0194 1.0864 0.0000 -0.0000 -9.7266 5.5845 -8.5821 7.5314 0.0000 0.0000 -8.6528 -1.6596 -1.9678 7.6911 -25.4662 -26.9496 -35.3343 -0.3337 32.7131 10.1304 0.0000 8.9819 -1.2799 6.2213 11.6494 32.8623 0.0000 -24.3270 -5.6598 26.1048 31.9715 -31.6235 1.9953 -30.7405 -2.4128 0.0000 29.9966 1.0856 6.6461 -9.2989 33.1476 -0.0000 26.2537 -2.0153 3.8497 -0.0156
 -2.9067 33.1723 -0.4314 7.7055 -1.5996 2.9575 -1.2667 -7.2098 -2.0901 -0.6763 0.0000 0.0000 -11.0038 -4.1594 2.0483 5.6570 0.0000 -0.0000 -1.2805 4.8155 1.0144 1.0904 0.0000 0.0000 -9.7171 5.5758 -8.6027 7.4898 -0.0000 0.0000 -8.6492 -1.6657 -1.9629 7.6774 -25.4592 -26.9501 -35.3509 -0.3397 32.7151 10.1380 0.0000 9.0084 -1.2775 6.2296 11.6128 32.8623 0.0000 -24.3270 -5.6632 26.1128 31.9625 -31.5697 1.9836 -30.7349 -2.4400 0.0000 29.9879 1.0811 6.6320 -9.2796 33.1476 -0.0000 26.2537 -2.0126 3.8882 -0.0115
 -2.9045 33.1723 -0.4323 7.7038 -1.5988 2.9607 -1.2677 -7.2140 -2.0985 -0.6718 -0.0000 -0.0000 -10.9657 -4.1439 2.0423 5.7681 0.0000 -0.0000 -1.2812 4.8055 1.0084 1.0930 0.0000 -0.0000 -9.7249 5.5743 -8.5836 7.5067 0.0000 0.0000 -8.6465 -1.6660 -1.9583 7.6812 -25.4718 -26.9534 -35.3603 -0.3435 32.7273 10.1711 0.0000 8.9776 -1.2832 6.2051 11.7079 32.8623 0.0000 -24.3270 -5.6583 26.1185 31.9528 -31.5595 1.9918 -30.7387 -2.4673 0.0000 29.9763 1.0822 6.6534 -9.2596 33.1476 -0.0000 26.2537 -2.0113 3.8936 0.0001
 -2.9026 33.1725 -0.4338 7.7011 -1.6042 2.9649 -1.2672 -7.2027 -2.1054 -0.6799 -0.0000 -0.0000 -10.9965 -4.1563 2.0538 5.6332 0.0000 -0.0000 -1.2779 4.8026 1.0007 1.0894 -0.0000 -0.0000 -9.7189 5.5843 -8.5779 7.5113 0.0000 -0.0000 -8.6388 -1.6690 -1.9538 7.6987 -25.4856 -26.9425 -35.4085 -0.3480 32.7379 10.1821 0.0000 8.9937 -1.2833 6.2134 11.6941 32.8623 0.0000 -24.3270 -5.6553 26.1328 31.9433 -31.5613 2.0110 -30.7468 -2.4934 0.0000 29.9586 1.0763 6.6441 -9.2230 33.1476 -0.0000 26.2537 -2.0149 3.9191 0.0067
 -2.9001 33.1726 -0.4358 7.7032 -1.6020 2.9699 -1.2767 -7.2054 -2.1155 -0.6755 -0.0000 0.0000 -10.9808 -4.1452 2.1301 5.9257 0.0000 -0.0000 -1.2843 4.8005 0.9912 1.0939 0.0000 0.0000 -9.7003 5.5907 -8.6363 7.4185 0.0000 -0.0000 -8.6389 -1.6821 -1.9507 7.6771 -25.4586 -26.9493 -35.3708 -0.3467 32.7321 10.2018 0.0000 8.9993 -1.2827 6.1805 11.7490 32.8623 0.0000 -24.3270 -5.6495 26.1422 31.9394 -31.5414 2.0381 -30.7552 -2.5360 0.0000 29.9308 1.0770 6.6433 -9.2297 33.1476 -0.0000 26.2537 -2.0132 3.9431 0.0101
 -2.8988 33.1730 -0.4376 7.6985 -1.6060 2.9663 -1.2767 -7.1886 -2.1140 -0.6706 0.0000 0.0000 -10.9896 -4.1716 2.0808 5.6488 0.0000 -0.0000 -1.2838 4.8045 0.9936 1.0954 0.0000 -0.0000 -9.7161 5.5817 -8.5789 7.5067 -0.0000 -0.0000 -8.6316 -1.6747 -1.9395 7.6716 -25.4574 -26.9432 -35.3860 -0.3560 32.7306 10.2053 0.0000 9.0276 -1.2834 6.1860 11.7451 32.8623 0.0000 -24.3270 -5.6421 26.1385 31.9281 -31.5498 2.0661 -30.7659 -2.5659 0.0000 29.9439 1.0776 6.6642 -9.2067 33.1476 -0.0000 26.2537 -2.0053 3.9530 0.0179
 -2.8976 33.1731 -0.4383 7.6929 -1.6075 2.9705 -1.2724 -7.1975 -2.1217 -0.6757 0.0000 0.0000 -10.9773 -4.1579 2.1405 5.6310 0.0000 0.0000 -1.2770 4.7837 0.9948 1.1015 0.0000 -0.0000 -9.7208 5.5509 -8.5492 7.4810 0.0000 -0.0000 -8.6271 -1.6684 -1.9380 7.6749 -25.4635 -26.9416 -35.3918 -0.3584 32.7404 10.2070 0.0000 9.0499 -1.2905 6.2107 11.7622 32.8623 0.0000 -24.3270 -5.6317 26.1370 31.9167 -31.5427 2.0756 -30.7772 -2.5825 0.0000 29.9067 1.0773 6.6694 -9.1970 33.1476 -0.0000 26.2537 -1.9964 3.9604 0.0274
 -2.8958 33.1733 -0.4401 7.6916 -1.6059 2.9711 -1.2787 -7.2033 -2.1259 -0.6659 -0.0000 -0.0000 -10.9925 -4.1498 2.0800 5.6268 0.0000 0.0000 -1.2820 4.8033 0.9843 1.1003 0.0000 0.0000 -9.7143 5.5819 -8.5995 7.4800 0.0000 0.0000 -8.6254 -1.6859 -1.9270 7.6582 -25.4431 -26.9480 -35.3895 -0.3569 32.7329 10.2237 0.0000 8.9896 -1.2884 6.1413 11.8723 32.8623 0.0000 -24.3270 -5.6089 26.1614 31.9004 -31.5499 2.0912 -30.7978 -2.5952 0.0000 29.9241 1.0800 6.6981 -9.1813 33.1476 -0.0000 26.2537 -1.9889 3.9816 0.0209
